<mxfile host="Electron" modified="2024-05-05T19:39:08.490Z" agent="Mozilla/5.0 (Windows NT 10.0; Win64; x64) AppleWebKit/537.36 (KHTML, like Gecko) draw.io/24.2.5 Chrome/120.0.6099.109 Electron/28.1.0 Safari/537.36" etag="XzStNoFeYREMNb6KTuC1" version="24.2.5" type="device">
  <diagram name="PÃ¡gina-1" id="0-ocOcftDGYA7sLX1KhD">
    <mxGraphModel dx="472" dy="827" grid="1" gridSize="10" guides="1" tooltips="1" connect="1" arrows="1" fold="1" page="1" pageScale="1" pageWidth="827" pageHeight="1169" math="0" shadow="0">
      <root>
        <mxCell id="0" />
        <mxCell id="1" parent="0" />
        <mxCell id="3j8lF3fllSrTeWKisxW4-4" style="edgeStyle=orthogonalEdgeStyle;rounded=0;orthogonalLoop=1;jettySize=auto;html=1;" edge="1" parent="1" source="3j8lF3fllSrTeWKisxW4-1" target="3j8lF3fllSrTeWKisxW4-3">
          <mxGeometry relative="1" as="geometry" />
        </mxCell>
        <mxCell id="3j8lF3fllSrTeWKisxW4-1" value="Inicio" style="strokeWidth=2;html=1;shape=mxgraph.flowchart.terminator;whiteSpace=wrap;" vertex="1" parent="1">
          <mxGeometry x="230" y="140" width="100" height="60" as="geometry" />
        </mxCell>
        <mxCell id="3j8lF3fllSrTeWKisxW4-10" style="edgeStyle=orthogonalEdgeStyle;rounded=0;orthogonalLoop=1;jettySize=auto;html=1;" edge="1" parent="1" source="3j8lF3fllSrTeWKisxW4-2" target="3j8lF3fllSrTeWKisxW4-9">
          <mxGeometry relative="1" as="geometry" />
        </mxCell>
        <mxCell id="3j8lF3fllSrTeWKisxW4-2" value="circunferencia = 3.14159f*pow(raio, 2)" style="rounded=1;whiteSpace=wrap;html=1;absoluteArcSize=1;arcSize=14;strokeWidth=2;" vertex="1" parent="1">
          <mxGeometry x="220" y="340" width="120" height="50" as="geometry" />
        </mxCell>
        <mxCell id="3j8lF3fllSrTeWKisxW4-5" style="edgeStyle=orthogonalEdgeStyle;rounded=0;orthogonalLoop=1;jettySize=auto;html=1;" edge="1" parent="1" source="3j8lF3fllSrTeWKisxW4-3" target="3j8lF3fllSrTeWKisxW4-2">
          <mxGeometry relative="1" as="geometry" />
        </mxCell>
        <mxCell id="3j8lF3fllSrTeWKisxW4-3" value="raio" style="html=1;strokeWidth=2;shape=manualInput;whiteSpace=wrap;rounded=1;size=26;arcSize=11;" vertex="1" parent="1">
          <mxGeometry x="230" y="240" width="100" height="60" as="geometry" />
        </mxCell>
        <mxCell id="3j8lF3fllSrTeWKisxW4-6" value="circunferencia = 3.14159f*raio^2" style="rounded=1;whiteSpace=wrap;html=1;absoluteArcSize=1;arcSize=14;strokeWidth=2;" vertex="1" parent="1">
          <mxGeometry x="390" y="340" width="120" height="50" as="geometry" />
        </mxCell>
        <mxCell id="3j8lF3fllSrTeWKisxW4-12" style="edgeStyle=orthogonalEdgeStyle;rounded=0;orthogonalLoop=1;jettySize=auto;html=1;" edge="1" parent="1" source="3j8lF3fllSrTeWKisxW4-9" target="3j8lF3fllSrTeWKisxW4-11">
          <mxGeometry relative="1" as="geometry" />
        </mxCell>
        <mxCell id="3j8lF3fllSrTeWKisxW4-9" value="circunferencia" style="strokeWidth=2;html=1;shape=mxgraph.flowchart.display;whiteSpace=wrap;" vertex="1" parent="1">
          <mxGeometry x="230" y="430" width="100" height="60" as="geometry" />
        </mxCell>
        <mxCell id="3j8lF3fllSrTeWKisxW4-11" value="Fim" style="strokeWidth=2;html=1;shape=mxgraph.flowchart.terminator;whiteSpace=wrap;" vertex="1" parent="1">
          <mxGeometry x="230" y="530" width="100" height="60" as="geometry" />
        </mxCell>
      </root>
    </mxGraphModel>
  </diagram>
</mxfile>
